<?xml version="1.0" encoding="UTF-8"?>
<svg id="Layer_2" data-name="Layer 2" xmlns="http://www.w3.org/2000/svg" viewBox="0 0 278.54 37.41">
  <defs>
    <style>
      .cls-1 {
        fill: #fff;
      }
    </style>
  </defs>
  <g id="Layer_1-2" data-name="Layer 1">
    <path class="cls-1" d="m26.93,30.51H10.75l-2.28,6.24H0L14.01.54h9.66l13.95,36.21h-8.42l-2.28-6.24Zm-14.12-6.68h12l-5.97-16.61-6.03,16.61Z"/>
    <path class="cls-1" d="m40.98.54h7.71v29.43h13.31l-3,6.79h-18.02V.54Z"/>
    <path class="cls-1" d="m89.44,30.51h-16.18l-2.28,6.24h-8.47L76.52.54h9.66l13.95,36.21h-8.42l-2.28-6.24Zm-14.12-6.68h12l-5.97-16.61-6.03,16.61Z"/>
    <path class="cls-1" d="m111.21,12.43v24.32h-7.71V.54h7.93l16.78,23.45V.54h7.71v36.21h-7.44l-17.26-24.32Z"/>
    <path class="cls-1" d="m157.08,27.96c1.41,1.36,3.26,2.61,5.75,2.61,3.42,0,5.65-2.28,5.65-5.81V.54h7.71v24.32c0,8.58-5.32,12.54-12.76,12.54-3.64,0-7.11-.98-9.72-3.53l3.37-5.92Z"/>
    <path class="cls-1" d="m183.35.54h7.82v21.5c0,5.05,2.77,8.52,8.42,8.52s8.31-3.47,8.31-8.52V.54h7.82v21.72c0,9.01-5.16,15.15-16.12,15.15s-16.23-6.19-16.23-15.09V.54Z"/>
    <path class="cls-1" d="m223.52,25.79c2.55,2.66,6.52,4.89,11.51,4.89,4.23,0,6.3-2.01,6.3-4.07,0-2.71-3.15-3.64-7.33-4.61-5.92-1.36-13.52-2.99-13.52-11.08,0-6.03,5.21-10.91,13.74-10.91,5.75,0,10.53,1.74,14.12,5.05l-4.29,5.65c-2.93-2.71-6.84-3.96-10.37-3.96s-5.32,1.52-5.32,3.69c0,2.44,3.04,3.2,7.22,4.18,5.97,1.36,13.57,3.15,13.57,11.18,0,6.62-4.72,11.62-14.5,11.62-6.95,0-11.94-2.33-15.36-5.75l4.23-5.86Z"/>
    <path class="cls-1" d="m260.25,7.33h-10.59V.54h28.88v6.79h-10.53v29.43h-7.76V7.33Z"/>
  </g>
</svg>